<?xml version="1.0" encoding="UTF-8" standalone="no"?>
<svg
   xmlns:dc="http://purl.org/dc/elements/1.1/"
   xmlns:cc="http://creativecommons.org/ns#"
   xmlns:rdf="http://www.w3.org/1999/02/22-rdf-syntax-ns#"
   xmlns:svg="http://www.w3.org/2000/svg"
   xmlns="http://www.w3.org/2000/svg"
   xmlns:xlink="http://www.w3.org/1999/xlink"
   xmlns:sodipodi="http://sodipodi.sourceforge.net/DTD/sodipodi-0.dtd"
   xmlns:inkscape="http://www.inkscape.org/namespaces/inkscape"
   version="1.1"
   id="svg1197"
   width="512"
   height="512"
   viewBox="0 0 512 512"
   sodipodi:docname="design-black.svg"
   inkscape:version="1.0 (4035a4fb49, 2020-05-01)">
  <metadata
     id="metadata1203">
    <rdf:RDF>
      <cc:Work
         rdf:about="">
        <dc:format>image/svg+xml</dc:format>
        <dc:type
           rdf:resource="http://purl.org/dc/dcmitype/StillImage" />
        <dc:title></dc:title>
      </cc:Work>
    </rdf:RDF>
  </metadata>
  <defs
     id="defs1201">
    <linearGradient
       inkscape:collect="always"
       id="linearGradient2478">
      <stop
         style="stop-color:#3eebcd;stop-opacity:1"
         offset="0"
         id="stop2474" />
      <stop
         style="stop-color:#daf4c9;stop-opacity:0.98903567"
         offset="1"
         id="stop2476" />
    </linearGradient>
    <linearGradient
       gradientUnits="userSpaceOnUse"
       y2="484.41055"
       x2="543.31177"
       y1="17.636862"
       x1="-39.053501"
       id="linearGradient2619"
       xlink:href="#linearGradient2478"
       inkscape:collect="always" />
    <linearGradient
       gradientUnits="userSpaceOnUse"
       y2="484.41055"
       x2="543.31177"
       y1="17.636862"
       x1="-39.053501"
       id="linearGradient2621"
       xlink:href="#linearGradient2478"
       inkscape:collect="always" />
    <linearGradient
       gradientTransform="translate(-1.380023,-0.21810451)"
       gradientUnits="userSpaceOnUse"
       y2="484.41055"
       x2="543.31177"
       y1="17.636862"
       x1="-39.053501"
       id="linearGradient2625"
       xlink:href="#linearGradient2478"
       inkscape:collect="always" />
    <linearGradient
       gradientUnits="userSpaceOnUse"
       y2="484.41055"
       x2="543.31177"
       y1="17.636862"
       x1="-39.053501"
       id="linearGradient2627"
       xlink:href="#linearGradient2478"
       inkscape:collect="always" />
    <linearGradient
       gradientUnits="userSpaceOnUse"
       y2="484.41055"
       x2="543.31177"
       y1="17.636862"
       x1="-39.053501"
       id="linearGradient2629"
       xlink:href="#linearGradient2478"
       inkscape:collect="always" />
    <linearGradient
       gradientUnits="userSpaceOnUse"
       y2="484.41055"
       x2="543.31177"
       y1="17.636862"
       x1="-39.053501"
       id="linearGradient2631"
       xlink:href="#linearGradient2478"
       inkscape:collect="always" />
    <linearGradient
       gradientUnits="userSpaceOnUse"
       y2="484.41055"
       x2="543.31177"
       y1="17.636862"
       x1="-39.053501"
       id="linearGradient2633"
       xlink:href="#linearGradient2478"
       inkscape:collect="always" />
    <linearGradient
       gradientUnits="userSpaceOnUse"
       y2="484.41055"
       x2="543.31177"
       y1="17.636862"
       x1="-39.053501"
       id="linearGradient2635"
       xlink:href="#linearGradient2478"
       inkscape:collect="always" />
    <linearGradient
       gradientUnits="userSpaceOnUse"
       y2="484.41055"
       x2="543.31177"
       y1="17.636862"
       x1="-39.053501"
       id="linearGradient2637"
       xlink:href="#linearGradient2478"
       inkscape:collect="always" />
    <linearGradient
       gradientUnits="userSpaceOnUse"
       y2="484.41055"
       x2="543.31177"
       y1="17.636862"
       x1="-39.053501"
       id="linearGradient2639"
       xlink:href="#linearGradient2478"
       inkscape:collect="always" />
    <linearGradient
       gradientUnits="userSpaceOnUse"
       y2="484.41055"
       x2="543.31177"
       y1="17.636862"
       x1="-39.053501"
       id="linearGradient2641"
       xlink:href="#linearGradient2478"
       inkscape:collect="always" />
  </defs>
  <sodipodi:namedview
     inkscape:document-rotation="0"
     pagecolor="#ffffff"
     bordercolor="#666666"
     borderopacity="1"
     objecttolerance="10"
     gridtolerance="10"
     guidetolerance="10"
     inkscape:pageopacity="0"
     inkscape:pageshadow="2"
     inkscape:window-width="1894"
     inkscape:window-height="1029"
     id="namedview1199"
     showgrid="false"
     inkscape:zoom="1.0634223"
     inkscape:cx="227.94737"
     inkscape:cy="309.90716"
     inkscape:window-x="13"
     inkscape:window-y="38"
     inkscape:window-maximized="0"
     inkscape:current-layer="layer4" />
  <g
     inkscape:groupmode="layer"
     inkscape:label="Image"
     id="g1205"
     style="display:none">
    <path
       id="path2587"
       d="m 88.326652,462.15724 c -3.897638,-1.34339 -5.573356,-4.90711 -4.17806,-8.88541 1.586615,-4.52379 4.23671,-4.82592 42.838368,-4.88382 l 35.38923,-0.053 0.3782,-9.41597 c 0.35186,-8.76052 0.55722,-9.59511 2.95008,-11.98959 2.55613,-2.55786 2.66379,-2.57557 17.57448,-2.89091 l 15.0026,-0.31729 4.26122,-13.46577 c 2.34366,-7.40616 4.51959,-14.7577 4.8354,-16.33675 l 0.5742,-2.87097 -85.9388,-0.27245 -85.93879,-0.27249 -6.321468,-3.11258 c -8.872748,-4.36879 -11.191952,-6.6254 -14.865555,-14.46438 l -3.220638,-6.87241 -0.265118,-137.76276 c -0.181665,-94.39831 0.05146,-139.81517 0.7406,-144.282949 1.787104,-11.585983 7.99328,-19.83965 18.689048,-24.854786 L 36.116484,56.67492 H 258.51167 480.90686 l 5.28483,2.478005 c 11.14468,5.225624 17.10284,13.45007 18.74411,25.873753 0.64641,4.892928 0.8817,53.515012 0.69783,144.204342 l -0.27741,136.8224 -3.42564,7.17333 c -3.66107,7.66633 -7.1449,10.86425 -16.58837,15.22698 l -4.43535,2.04906 -85.91794,0.27245 -85.91795,0.27245 0.5742,2.87098 c 0.31581,1.57904 2.50344,8.96756 4.86141,16.41894 l 4.28723,13.54797 13.35058,0.0937 c 7.34283,0.0515 14.4085,0.3858 15.7015,0.74277 4.04153,1.1158 6.41913,6.89664 6.50672,15.82032 l 0.0758,7.7234 45.06235,0.26966 45.06235,0.26966 2.42584,2.27972 c 3.14278,2.9535 3.1425,6.59294 -7.4e-4,9.54596 l -2.42659,2.27972 -176.47694,0.18708 c -135.13931,0.14325 -177.243157,-0.077 -179.748027,-0.94036 z m 251.055998,-18.5241 v -4.7018 h -80.87098 -80.87098 v 4.7018 4.7018 h 80.87098 80.87098 z m -35.73369,-20.84861 c 0,-0.60559 -2.18939,-8.01092 -4.86529,-16.45631 l -4.86529,-15.35525 h -35.40671 -35.40671 l -4.86529,15.35525 c -2.67591,8.44539 -4.86529,15.85072 -4.86529,16.45631 0,0.82587 11.28099,1.10105 45.13729,1.10105 33.8563,0 45.13729,-0.27518 45.13729,-1.10105 z m 179.59005,-48.50441 c 1.79988,-0.9043 4.23306,-3.08203 5.40708,-4.83941 1.93151,-2.89129 2.13455,-4.30014 2.13455,-14.81067 V 343.0146 H 258.51167 26.242702 l 0.0035,11.51941 c 0.0039,12.95025 1.075756,16.02409 6.805502,19.51755 3.035262,1.85062 5.201141,1.86863 224.989766,1.87067 209.4097,0.002 222.10956,-0.0907 225.19753,-1.64211 z m -364.48457,-60.1816 c -0.25356,-7.62867 -0.87938,-15.56296 -1.39069,-17.63175 -1.42093,-5.74912 -1.58212,-57.9187 -0.18764,-60.72891 0.62094,-1.25138 2.24379,-9.42425 3.60632,-18.16193 l 2.47732,-15.88671 -4.62818,-4.55596 c -3.31677,-3.26502 -5.40444,-6.48621 -7.36776,-11.36813 -2.44786,-6.08675 -2.73959,-7.91532 -2.73959,-17.17174 0,-10.16625 0.0687,-10.49722 3.68222,-17.73606 2.02523,-4.05708 4.14104,-7.86554 4.7018,-8.46325 0.56077,-0.59771 4.15227,-4.99476 7.98111,-9.77123 11.58209,-14.44859 13.71313,-14.87314 23.2722,-4.63629 3.54218,3.79333 7.5244,8.5539 8.8494,10.57905 1.325,2.02515 3.93057,6.00948 5.79017,8.85407 4.69035,7.17475 6.37633,12.86329 6.37633,21.51394 0,11.11469 -3.68496,20.20966 -11.84999,29.24737 l -3.31978,3.6746 3.35327,21.06738 c 4.02101,25.26262 4.14053,36.83088 0.98084,94.93699 l -0.54969,10.10888 10.62957,-10e-5 10.62956,-8e-5 V 250.5568 c 0,-67.55309 0.17964,-77.59256 1.41054,-78.83062 0.7758,-0.7803 4.57326,-8.15534 8.4388,-16.38897 3.86554,-8.23363 7.33182,-15.19146 7.70286,-15.46185 0.37103,-0.27039 2.25069,-3.86726 4.17703,-7.99306 1.92633,-4.1258 4.13253,-8.24198 4.90266,-9.14708 1.63087,-1.9167 6.6233,-2.1808 8.88793,-0.47018 0.85586,0.6465 7.17839,12.38925 14.05004,26.095 l 12.49392,24.91954 v 77.34454 77.34453 l 4.93689,9e-5 4.93689,10e-5 v -99.70839 c 0,-111.22266 -0.35144,-105.21994 6.27455,-107.17131 5.69611,-1.67752 74.73272,-0.89969 76.85845,0.86596 4.40523,3.65902 4.3205,1.562 4.3205,106.92057 v 99.09317 l 4.46671,-2.5e-4 4.46671,-2.4e-4 v -45.37214 -45.37213 l 3.06349,-5.64216 c 1.68492,-3.10319 3.48937,-6.27691 4.00988,-7.05271 0.52051,-0.77579 4.13408,-7.96955 8.03016,-15.98612 11.46074,-23.5816 11.41125,-23.509 16.02625,-23.509 4.18669,0 6.19756,2.8078 14.47434,20.21069 3.67923,7.73604 6.98358,14.28766 7.34296,14.55917 0.3594,0.2715 2.55768,4.44588 4.88507,9.27639 l 4.23162,8.78275 v 45.05275 45.05275 l 40.67058,1.2e-4 40.67058,1.3e-4 -0.0155,-122.9521 -0.0155,-122.952094 -2.10034,-3.663549 c -1.15519,-2.014952 -3.57481,-4.448134 -5.37693,-5.407071 -3.16397,-1.683592 -10.88925,-1.743473 -224.74609,-1.742061 -208.970219,0.0014 -221.654448,0.09426 -224.746585,1.64563 -1.862988,0.934692 -4.189526,3.267273 -5.391602,5.40561 l -2.114512,3.761441 -0.01547,122.952094 -0.01547,122.9521 h 46.486391 46.486388 z m 25.05784,13.63523 c 0.16955,-1.62365 2.76,-65.25618 2.77543,-68.17612 l 0.0211,-3.99653 h -8.46325 -8.46324 l 0.0652,5.40707 c 0.10759,8.93147 2.69037,57.72953 3.3098,62.53396 l 0.57588,4.46671 h 5.07729 c 2.79251,0 5.08834,-0.10579 5.10185,-0.23509 z m 83.29793,-1.25237 c -0.31394,-0.81809 -0.57079,-29.80469 -0.57079,-64.41467 v -62.92722 h -16.44347 -16.44347 l -0.24793,64.4148 -0.24791,64.4148 17.26218,-1.3e-4 c 15.35448,-1.1e-4 17.1991,-0.16451 16.69139,-1.48758 z m 96.28631,-14.88068 v -16.36812 l -13.61053,-0.32327 c -12.50261,-0.29695 -13.77742,-0.49028 -15.66087,-2.37502 -2.61978,-2.62161 -2.57872,-7.42121 0.0863,-10.08818 1.77654,-1.77782 3.26341,-1.99633 15.57456,-2.28872 l 13.61051,-0.32327 v -8.24447 -8.24445 l -5.71163,-0.51792 c -7.00612,-0.63529 -9.33413,-2.44754 -9.33413,-7.26618 0,-4.81864 2.32801,-6.63088 9.33413,-7.26618 l 5.71163,-0.51791 v -8.24446 -8.24447 l -13.53816,-0.32327 c -15.6111,-0.37275 -17.49372,-1.16653 -17.49372,-7.37596 0,-6.20942 1.88262,-7.0032 17.49372,-7.37596 l 13.53816,-0.32326 v -8.24447 -8.24446 l -5.71163,-0.51791 c -7.00612,-0.6353 -9.33413,-2.44754 -9.33413,-7.26618 0,-4.81864 2.32801,-6.63089 9.33413,-7.26618 l 5.71163,-0.51792 v -8.24445 -8.24447 l -13.53816,-0.32327 c -15.6111,-0.37276 -17.49372,-1.16653 -17.49372,-7.37596 0,-6.20942 1.88262,-7.0032 17.49372,-7.37596 l 13.53816,-0.32327 v -8.37506 -8.37507 h -28.68098 -28.68099 v 96.38692 96.38692 h 28.68099 28.68098 z m 72.03817,14.88068 c -0.31394,-0.81809 -0.57079,-15.41718 -0.57079,-32.44242 v -30.95498 h -16.45631 -16.4563 v 30.95498 c 0,17.02524 -0.25685,31.62433 -0.57079,32.44242 -0.50795,1.32371 1.36647,1.48746 17.02709,1.48746 15.66063,0 17.53505,-0.16375 17.0271,-1.48746 z m -0.57079,-82.33089 c 0,-2.66222 -1.34525,-6.72759 -4.26758,-12.89668 -2.34717,-4.95492 -4.56877,-9.23551 -4.93689,-9.51241 -0.36813,-0.27689 -1.91082,-3.14821 -3.42821,-6.3807 -1.51739,-3.23249 -3.25694,-5.87725 -3.86567,-5.87725 -0.60872,0 -2.69872,3.49109 -4.64443,7.75797 -1.94572,4.26689 -3.89511,7.98605 -4.33198,8.2648 -1.92033,1.22529 -7.43785,15.10389 -7.43785,18.70893 v 3.82307 h 16.4563 16.45631 z m -249.18135,-4.34042 c 0.008,-0.3879 -1.1043,-7.79324 -2.47126,-16.45631 -2.35739,-14.93996 -2.5937,-15.75103 -4.58907,-15.75103 -1.95769,0 -2.21573,0.73422 -3.718,10.57905 -0.88788,5.81848 -1.97888,11.42538 -2.42445,12.45978 -0.44556,1.03439 -1.08288,3.67916 -1.41626,5.87725 l -0.60614,3.99653 h 7.60554 c 4.18305,0 7.61188,-0.31737 7.61964,-0.70527 z m 2.14293,-51.53832 c 5.18517,-5.18517 7.24657,-10.67916 7.24657,-19.31334 0,-7.75865 -1.9547,-12.68208 -8.26134,-20.80839 -2.52866,-3.25826 -5.10449,-6.87132 -5.72407,-8.02902 -1.51819,-2.83675 -3.53612,-2.65144 -5.23859,0.48107 -0.77301,1.42229 -2.72281,3.85493 -4.33293,5.40586 -1.6101,1.55093 -4.42356,5.93039 -6.25212,9.73213 -3.18079,6.61311 -3.30683,7.26431 -2.91237,15.04698 0.47449,9.36185 2.44151,14.11624 7.77919,18.80279 2.88836,2.536 4.10815,2.96714 8.39492,2.96714 4.6998,0 5.28527,-0.26974 9.30074,-4.28522 z m 78.71394,-8.40964 v -4.23163 h -16.4563 -16.4563 v 4.23163 4.23162 h 16.4563 16.4563 z m -8.48968,-20.92302 c -0.0413,-2.57153 -5.92142,-12.8881 -7.51615,-13.18701 -0.94184,-0.17652 -2.46717,1.83468 -4.46671,5.88955 -4.39867,8.92003 -4.38711,8.94309 4.48642,8.94309 6.54781,0 7.51946,-0.21329 7.49644,-1.64563 z"
       style="opacity:0.99;fill:url(#linearGradient2619);fill-opacity:1;fill-rule:evenodd;stroke:#270b36;stroke-width:0" />
    <path
       id="path2589"
       d="m 88.326652,462.15599 c -6.314616,-2.17403 -6.314616,-10.42585 0,-12.59252 2.295772,-0.78773 13.822788,-1.1382 38.660308,-1.17546 l 35.38923,-0.053 0.3782,-9.41597 c 0.35186,-8.76052 0.55722,-9.59511 2.95008,-11.98959 2.55574,-2.55748 2.66586,-2.57561 17.54901,-2.89045 l 14.97712,-0.31684 4.29766,-13.52109 c 2.36371,-7.4366 4.55151,-14.79032 4.86176,-16.3416 l 0.56411,-2.8205 -85.91883,-0.26806 -85.918816,-0.26809 -5.602486,-2.62343 C 21.582756,383.6972 18.854226,381.10311 15.08516,373.21075 l -3.418041,-7.15733 -0.26364,-137.76276 c -0.180392,-94.26237 0.05346,-139.821604 0.7406,-144.282949 1.784199,-11.584175 7.99094,-19.839246 18.68757,-24.854786 L 36.116484,56.67492 H 258.51167 480.90686 l 5.28483,2.478005 c 11.14468,5.225624 17.10284,13.45007 18.74411,25.873753 0.64641,4.892928 0.8817,53.515012 0.69783,144.204342 l -0.27741,136.8224 -3.21805,6.86682 c -3.59279,7.6664 -7.00049,10.9157 -15.74348,15.0116 l -5.48783,2.57095 -85.91883,0.26805 -85.91882,0.26806 0.56411,2.8205 c 0.31025,1.55128 2.50973,8.94179 4.88774,16.42334 l 4.32364,13.60284 13.32515,0.0937 c 7.32883,0.0515 14.37986,0.38725 15.66897,0.746 4.1492,1.15467 6.55636,6.94922 6.57412,15.82534 l 0.0155,7.73165 45.06222,0.26141 45.06222,0.26141 2.42597,2.27972 c 3.14292,2.95348 3.14269,6.59288 -6.3e-4,9.54596 l -2.42665,2.2797 -176.47693,0.18583 C 133.04825,463.23852 90.82943,463.01764 88.326652,462.15599 Z M 339.38265,443.63314 v -4.7018 h -80.87098 -80.87098 v 4.7018 4.7018 h 80.87098 80.87098 z M 303.64896,422.8436 c 0,-0.57308 -2.19357,-7.97842 -4.87458,-16.4563 l -4.8746,-15.41433 h -35.38811 -35.38811 l -4.8746,15.41433 c -2.68101,8.47788 -4.87458,15.88322 -4.87458,16.4563 0,0.74793 12.73813,1.04198 45.13729,1.04198 32.39916,0 45.13729,-0.29405 45.13729,-1.04198 z m 179.25011,-48.44287 c 6.19623,-2.9403 7.37232,-5.89476 7.72121,-19.39654 L 490.9301,343.0146 H 258.51167 26.093243 l 0.309819,11.98959 c 0.273609,10.58827 0.553616,12.33138 2.395711,14.91382 4.628774,6.48911 -15.501182,5.96408 229.570777,5.98778 202.27253,0.0196 221.58947,-0.10991 224.52952,-1.50506 z m -364.1296,-58.42149 c -0.24943,-6.59427 -0.83991,-14.31698 -1.31219,-17.16157 -1.45213,-8.74652 -2.17646,-54.36119 -0.94819,-59.71287 0.59351,-2.58599 2.34831,-12.0692 3.89954,-21.07379 l 2.82043,-16.37199 -4.69458,-4.62133 c -3.14972,-3.10059 -5.56404,-6.68696 -7.33677,-10.89846 -2.37409,-5.6402 -2.64378,-7.3744 -2.65784,-17.09127 -0.0152,-10.56094 0.0652,-10.97928 3.43579,-17.86684 3.37948,-6.90563 12.81275,-19.54621 19.82247,-26.56208 2.69367,-2.69603 4.2816,-3.52945 6.72473,-3.52945 2.77209,0 4.08959,0.95431 9.88518,7.16017 8.00699,8.57382 16.572,21.28594 19.00414,28.20583 2.4082,6.85174 2.36482,18.07823 -0.0975,25.23508 -2.25339,6.54961 -4.91128,11.00067 -9.65251,16.16463 l -3.56952,3.88778 3.4949,22.5967 3.49491,22.59669 -1.1507,34.16875 c -0.6329,18.79282 -1.40518,37.0251 -1.71617,40.51618 l -0.56546,6.34744 10.70056,-10e-5 10.70055,-8e-5 v -77.48108 c 0,-70.81367 0.13412,-77.63117 1.55855,-79.22526 0.85719,-0.9593 4.65574,-8.30319 8.44121,-16.31976 3.78546,-8.01657 7.18515,-14.79681 7.55485,-15.0672 0.3697,-0.27039 2.24828,-3.86726 4.17462,-7.99306 1.92633,-4.1258 4.13253,-8.24198 4.90266,-9.14708 1.63086,-1.91668 6.62384,-2.18085 8.88661,-0.47018 0.85514,0.6465 7.17766,12.38925 14.05004,26.095 l 12.49524,24.91954 0.25625,77.34463 0.25627,77.34463 h 4.68062 4.68064 l 0.002,-99.91327 c 9.4e-4,-93.25389 0.11105,-100.12989 1.64563,-103.16319 1.16451,-2.30181 2.55237,-3.47988 4.75729,-4.03818 1.71222,-0.43354 19.31478,-0.66372 39.11681,-0.51152 29.42294,0.22615 36.29761,0.52087 37.61179,1.61242 4.40483,3.65899 4.3201,1.56193 4.3201,106.92057 v 99.09317 l 4.46671,-2.6e-4 4.46671,-2.6e-4 V 282.5962 237.22408 l 12.49762,-24.41715 c 6.87369,-13.42943 13.18093,-25.17217 14.01606,-26.095 0.87183,-0.96336 2.83753,-1.67784 4.6161,-1.67784 4.18669,0 6.19756,2.8078 14.47434,20.21069 3.67923,7.73604 6.98358,14.28766 7.34296,14.55917 0.3594,0.2715 2.55768,4.44587 4.88507,9.27635 l 4.23162,8.78271 v 45.05278 45.05279 l 40.67058,1.2e-4 40.67058,1.4e-4 V 205.14477 82.320714 l -1.99158,-3.54353 c -1.09536,-1.948942 -3.58616,-4.439739 -5.5351,-5.535105 l -3.54353,-1.991576 H 258.58127 c -215.262603,0 -221.221926,0.04732 -224.625441,1.783665 -2.051779,1.046739 -4.367373,3.333582 -5.604699,5.535105 l -2.108428,3.751441 V 205.14477 327.96884 h 46.490136 46.490132 z m 25.04281,11.75451 c 0.16955,-1.62365 2.76,-65.25618 2.77543,-68.17612 l 0.0211,-3.99653 h -8.46325 -8.46324 l 0.0424,4.46671 c 0.0645,6.80322 2.77269,57.39466 3.37261,63.00414 l 0.52798,4.93689 h 5.08122 c 2.79467,0 5.09227,-0.10579 5.10578,-0.23509 z m 83.29793,-1.25237 c -0.31394,-0.81809 -0.57079,-29.80469 -0.57079,-64.41467 v -62.92722 h -16.4563 -16.4563 v 64.41467 64.41468 h 17.02709 c 15.14014,0 16.96383,-0.16484 16.4563,-1.48746 z m 96.28631,-14.88068 v -16.36812 l -13.61053,-0.32327 c -12.50261,-0.29695 -13.77742,-0.49028 -15.66087,-2.37502 -2.61978,-2.62161 -2.57872,-7.42121 0.0863,-10.08818 1.77654,-1.77782 3.26341,-1.99633 15.57456,-2.28872 l 13.61051,-0.32327 v -8.24447 -8.24445 l -5.71163,-0.51792 c -7.00612,-0.63529 -9.33413,-2.44754 -9.33413,-7.26618 0,-4.81864 2.32801,-6.63088 9.33413,-7.26618 l 5.71163,-0.51791 v -8.24446 -8.24447 l -13.53816,-0.32327 c -15.6111,-0.37275 -17.49372,-1.16653 -17.49372,-7.37596 0,-6.20942 1.88262,-7.0032 17.49372,-7.37596 l 13.53816,-0.32326 v -8.24447 -8.24446 l -5.71163,-0.51791 c -7.00612,-0.6353 -9.33413,-2.44754 -9.33413,-7.26618 0,-4.81864 2.32801,-6.63089 9.33413,-7.26618 l 5.71163,-0.51792 v -8.24445 -8.24447 l -13.53816,-0.32327 c -15.6111,-0.37276 -17.49372,-1.16653 -17.49372,-7.37596 0,-6.20942 1.88262,-7.0032 17.49372,-7.37596 l 13.53816,-0.32327 v -8.37506 -8.37507 h -28.68098 -28.68099 v 96.38692 96.38692 h 28.68099 28.68098 z m 71.67856,-16.07387 -0.25899,-32.44285 h -16.4085 -16.40849 l -0.259,32.44285 -0.25899,32.44284 h 16.92648 16.92649 z m -0.21118,-51.37634 c 0,-2.66222 -1.34525,-6.72759 -4.26758,-12.89668 -2.34717,-4.95492 -4.56877,-9.23551 -4.93689,-9.51241 -0.36813,-0.27689 -1.91082,-3.14821 -3.42821,-6.3807 -1.51739,-3.23249 -3.25555,-5.87725 -3.86259,-5.87725 -0.60703,0 -2.90337,3.70267 -5.10295,8.22815 -2.19959,4.52549 -5.62581,11.40187 -7.61383,15.28086 -2.46301,4.8058 -3.62826,8.32594 -3.65757,11.04923 l -0.043,3.99653 h 16.4563 16.45631 z m -249.5136,-6.69132 c -0.2901,-1.6809 -1.44997,-9.08623 -2.57749,-16.45631 -1.94077,-12.68597 -2.16338,-13.40013 -4.17693,-13.40013 -1.99515,0 -2.22858,0.68444 -3.7684,11.04923 -0.90283,6.07708 -1.95752,11.68398 -2.34377,12.45978 -0.38624,0.77579 -1.00017,3.20898 -1.3643,5.40707 l -0.66204,3.99653 h 7.71019 7.71019 z m 2.24163,-49.26481 c 3.44033,-3.21804 5.0334,-5.60659 6.07205,-9.1041 1.84167,-6.20159 1.70787,-15.1582 -0.30027,-20.10029 -1.99578,-4.91165 -13.40058,-20.88221 -14.94997,-20.93498 -0.6283,-0.0214 -1.64048,0.9132 -2.24929,2.0769 -0.60882,1.16369 -2.66332,3.82214 -4.56558,5.90765 -1.90226,2.08552 -4.69499,6.31714 -6.20607,9.4036 -8.00923,16.35936 -0.46581,37.09815 13.49832,37.11031 3.50746,0.003 4.64842,-0.56856 8.70081,-4.35909 z m 78.94749,-8.33225 v -4.23163 h -16.4563 -16.4563 v 4.23163 4.23162 h 16.4563 16.4563 z m -8.47243,-20.45284 c -0.0136,-1.73601 -4.43122,-10.92217 -6.01335,-12.50432 -0.75131,-0.75129 -1.75675,-1.36599 -2.23432,-1.36599 -0.91647,0 -6.7889,12.06277 -6.7889,13.94531 0,0.74865 2.40493,1.10045 7.52288,1.10045 5.39629,0 7.52029,-0.33227 7.51369,-1.17545 z"
       style="opacity:0.99;fill:url(#linearGradient2621);fill-opacity:1;fill-rule:evenodd;stroke:#270b36;stroke-width:0" />
  </g>
  <g
     style="display:inline"
     inkscape:groupmode="layer"
     id="layer4"
     inkscape:label="Image 1">
    <path
       id="path2591"
       d="m 86.946629,461.93788 c -6.314616,-2.17403 -6.314616,-10.42585 0,-12.59252 2.295772,-0.78773 13.822791,-1.1382 38.660301,-1.17546 l 35.38923,-0.053 0.3782,-9.41597 c 0.35186,-8.76052 0.55722,-9.59511 2.95008,-11.98959 2.55402,-2.55575 2.6751,-2.57581 17.43508,-2.88841 l 14.8632,-0.3148 4.86473,-14.92029 c 2.67561,-8.2062 4.86474,-15.56089 4.86474,-16.34381 0,-1.25871 -9.93247,-1.45449 -85.80787,-1.6914 l -85.807859,-0.26792 -5.602486,-2.62343 C 20.202733,383.47909 17.474203,380.885 13.705137,372.99264 l -3.418041,-7.15733 V 223.37074 80.90618 L 12.7651,75.621346 c 3.485692,-7.433928 8.458844,-12.531809 15.705351,-16.099253 l 6.226463,-3.065278 H 257.11186 479.52683 l 5.28483,2.478005 c 10.69577,5.015136 16.90195,13.268803 18.68905,24.854786 0.68914,4.467779 0.92226,49.884634 0.7406,144.282944 l -0.26512,137.76276 -3.21805,6.86682 c -3.59279,7.6664 -7.00049,10.9157 -15.74348,15.0116 l -5.48783,2.57095 -85.91883,0.26805 -85.91882,0.26806 0.56931,2.84652 c 0.31312,1.56559 2.51673,8.91959 4.89691,16.34223 l 4.32761,13.4957 14.8193,0.31621 c 11.05035,0.23578 15.22806,0.6559 16.42648,1.65187 2.85187,2.37013 4.31959,7.53794 4.31959,15.20915 v 7.38172 l 45.06222,0.26141 45.06222,0.26141 2.42597,2.27973 c 3.14293,2.95347 3.14269,6.59287 -6.3e-4,9.54595 l -2.4266,2.27972 -176.47693,0.18583 C 131.66822,463.02041 89.449407,462.79953 86.946629,461.93788 Z M 338.00262,443.41503 v -4.7018 h -80.87098 -80.87098 v 4.7018 4.7018 h 80.87098 80.87098 z m -35.73369,-20.75377 c 0,-0.55342 -2.20117,-7.95876 -4.89148,-16.4563 l -4.89147,-15.4501 H 257.13164 221.7773 l -4.89147,15.4501 c -2.69031,8.49754 -4.89148,15.90288 -4.89148,16.4563 0,0.70073 13.70341,1.00621 45.13729,1.00621 31.43388,0 45.13729,-0.30548 45.13729,-1.00621 z m 179.25011,-48.47864 c 6.19623,-2.9403 7.37232,-5.89476 7.72121,-19.39654 l 0.30982,-11.98959 H 257.20637 24.862679 v 11.0639 c 0,12.90823 1.240622,16.3292 7.150594,19.71743 l 3.663548,2.10034 221.312699,0.0154 c 202.26484,0.0141 221.58957,-0.11591 224.52952,-1.51101 z M 117.40532,318.11203 c -0.26088,-5.30128 -0.68171,-11.54292 -0.93518,-13.87031 -0.25348,-2.32739 -0.94545,-15.98396 -1.53771,-30.34793 -0.787,-19.08692 -0.79868,-27.81905 -0.0434,-32.44243 0.5684,-3.47936 2.37515,-13.89699 4.015,-23.15029 l 2.98156,-16.82416 -4.71285,-4.63933 c -3.16792,-3.1185 -5.57901,-6.69707 -7.35506,-10.91646 -2.37644,-5.64579 -2.64377,-7.36968 -2.65785,-17.14003 -0.0154,-10.68714 0.0419,-10.97934 3.54011,-18.05751 1.95567,-3.95702 7.13905,-11.60887 11.51861,-17.00412 12.93901,-15.93974 14.83033,-16.37334 24.80944,-5.68781 8.10706,8.68097 16.57603,21.30225 19.09982,28.46441 1.49342,4.23815 1.79032,7.05998 1.5034,14.28867 -0.31153,7.84867 -0.74981,9.80441 -3.4065,15.20092 -1.67694,3.40635 -4.9524,8.31042 -7.27881,10.89795 l -4.22984,4.70459 3.5608,22.88088 3.56079,22.88086 -1.10177,29.15117 c -0.60598,16.03314 -1.35043,34.12332 -1.65435,40.20039 l -0.55257,11.04924 10.57112,-1.4e-4 10.57111,-1.6e-4 v -77.4811 c 0,-71.12969 0.12904,-77.62407 1.57415,-79.2252 0.86578,-0.95925 4.64505,-8.30311 8.39838,-16.31968 3.75334,-8.01657 7.14599,-14.79681 7.53925,-15.0672 0.39326,-0.27039 2.29111,-3.86726 4.21744,-7.99306 4.55391,-9.75358 5.50272,-10.79271 9.85452,-10.79271 4.53629,0 4.20083,-0.5129 18.75774,28.68099 l 11.72226,23.509 0.2511,77.34463 0.25111,77.34463 h 4.68578 4.68579 l 0.002,-99.91327 c 9.4e-4,-93.25389 0.11105,-100.12989 1.64563,-103.16319 1.16451,-2.30181 2.55237,-3.47988 4.75729,-4.03818 1.71222,-0.43354 19.31478,-0.66372 39.11681,-0.51152 30.33401,0.23316 36.27086,0.49884 37.7027,1.68727 4.30309,3.57159 4.22919,1.70697 4.22919,106.70068 v 99.23821 l 4.46671,-2.6e-4 4.46671,-2.6e-4 v -45.37212 -45.37212 l 12.49762,-24.41715 c 6.87369,-13.42943 13.18093,-25.17217 14.01606,-26.095 2.1625,-2.38954 7.03468,-2.1536 9.4896,0.45954 1.10438,1.17556 5.23911,8.89827 9.18828,17.16157 3.94918,8.2633 7.45677,15.23577 7.79464,15.49437 0.33788,0.2586 2.51856,4.27864 4.84595,8.93343 l 4.23162,8.46324 0.26935,45.37238 0.26935,45.37238 h 40.40123 40.40123 V 204.7026 81.654487 l -2.13819,-3.172856 c -1.176,-1.745072 -3.56597,-4.135041 -5.31104,-5.311045 l -3.17286,-2.138188 H 257.3557 35.93289 l -3.54353,1.991576 c -1.948942,1.095366 -4.439739,3.586163 -5.535105,5.535105 l -1.991576,3.54353 V 204.92666 327.75073 h 46.50849 46.508491 z m 25.02348,9.40361 c 0.18133,-2.01989 2.75782,-65.30924 2.77542,-68.17612 l 0.0246,-3.99653 h -8.46325 -8.46324 v 2.59923 c 0,8.87654 2.02356,48.65611 2.96514,58.28909 l 1.12595,11.51942 h 5.00716 c 2.75393,0 5.01665,-0.10579 5.02826,-0.23509 z m 82.95286,-64.17946 -0.24793,-64.4148 h -16.44347 -16.44347 v 64.41467 64.41468 l 16.69139,1.2e-4 16.69139,1.3e-4 z m 96.63483,48.02761 v -16.38692 l -13.61177,-0.30447 c -12.54307,-0.28056 -13.77357,-0.46648 -15.67266,-2.36802 -2.70034,-2.70383 -2.69977,-7.2754 9.4e-4,-9.97828 1.89806,-1.89937 3.14512,-2.08928 15.67267,-2.38682 l 13.61082,-0.32327 v -8.24447 -8.24445 l -5.71163,-0.51792 c -7.00612,-0.63529 -9.33413,-2.44754 -9.33413,-7.26618 0,-4.81864 2.32801,-6.63088 9.33413,-7.26618 l 5.71163,-0.51791 v -8.24446 -8.24447 l -13.53816,-0.32327 c -15.6111,-0.37275 -17.49372,-1.16653 -17.49372,-7.37596 0,-6.20942 1.88262,-7.0032 17.49372,-7.37596 l 13.53816,-0.32326 v -8.24447 -8.24446 l -5.71163,-0.51791 c -7.00612,-0.6353 -9.33413,-2.44754 -9.33413,-7.26618 0,-4.81864 2.32801,-6.63089 9.33413,-7.26618 l 5.71163,-0.51792 v -8.24445 -8.24447 l -13.53816,-0.32327 c -15.6111,-0.37276 -17.49372,-1.16653 -17.49372,-7.37596 0,-6.20942 1.88262,-7.0032 17.49372,-7.37596 l 13.53816,-0.32327 v -8.37506 -8.37507 h -28.68098 -28.68099 v 96.38692 96.38692 h 28.68099 28.68098 z m 71.46738,-16.05549 v -32.44243 h -16.45631 -16.4563 v 32.44243 32.44243 h 16.4563 16.45631 z m 0,-51.37592 c 0,-2.66222 -1.34525,-6.72759 -4.26758,-12.89668 -2.34717,-4.95492 -4.56877,-9.23551 -4.93689,-9.51241 -0.36813,-0.27689 -1.91082,-3.14821 -3.42821,-6.3807 -1.51739,-3.23249 -3.25555,-5.87725 -3.86259,-5.87725 -0.60703,0 -2.88262,3.70267 -5.05687,8.22815 -2.17424,4.52549 -5.60704,11.40187 -7.62846,15.28086 -2.55427,4.90151 -3.68395,8.27171 -3.70365,11.04923 l -0.0284,3.99653 h 16.4563 16.45631 z m -249.5136,-6.69132 c -0.2901,-1.6809 -1.44997,-9.08623 -2.57749,-16.45631 -1.94077,-12.68597 -2.16338,-13.40013 -4.17693,-13.40013 -1.99515,0 -2.22858,0.68444 -3.7684,11.04923 -0.90283,6.07708 -1.95752,11.68398 -2.34377,12.45978 -0.38624,0.77579 -1.00017,3.20898 -1.3643,5.40707 l -0.66204,3.99653 h 7.71019 7.71019 z m 2.69327,-49.89144 c 5.40995,-5.58548 7.03468,-10.02298 7.01929,-19.17127 -0.0114,-6.7938 -2.65223,-12.76378 -9.91415,-22.41261 -6.1214,-8.13344 -6.93512,-8.7959 -8.14616,-6.63188 -0.49246,0.87997 -2.71022,3.64336 -4.92836,6.14086 -5.79675,6.52684 -9.29918,14.20838 -9.75706,21.39924 -0.93284,14.64999 6.23413,25.65257 16.71557,25.66138 3.81394,0.003 4.59991,-0.43167 9.01087,-4.98572 z m 78.49585,-7.70562 v -4.23163 h -16.4563 -16.4563 v 4.23163 4.23162 h 16.4563 16.4563 z m -8.46324,-20.19094 c 0,-1.34868 -4.38128,-10.5795 -5.92658,-12.48658 -0.73341,-0.9051 -1.75311,-1.64563 -2.26602,-1.64563 -0.96225,0 -6.85316,11.98729 -6.85316,13.94531 0,0.74865 2.40493,1.10045 7.52288,1.10045 4.24115,0 7.52288,-0.39852 7.52288,-0.91355 z"
       style="opacity:0.99;fill:url(#linearGradient2625);fill-opacity:1;fill-rule:evenodd;stroke:#270b36;stroke-width:0" />
    <path
       id="path2593"
       d="m 431.8058,309.69279 c -5.69884,-2.55061 -5.26137,-10.42472 0.69268,-12.46767 4.22956,-1.45125 31.55608,-1.59655 35.59304,-0.18926 1.63969,0.5716 3.39548,1.81327 3.90176,2.75926 1.54785,2.89218 1.05637,7.07122 -1.05677,8.98568 -1.76869,1.6024 -3.77751,1.81636 -19.04229,2.02826 -13.22501,0.18359 -17.74535,-0.0676 -20.08842,-1.11627 z"
       style="opacity:0.99;fill:url(#linearGradient2627);fill-opacity:1;fill-rule:evenodd;stroke:#270b36;stroke-width:0" />
    <path
       id="path2595"
       d="m 456.36314,286.19057 c -4.59099,-1.99857 -5.7575,-8.18377 -2.15782,-11.44143 2.83557,-2.56616 13.89345,-2.56616 16.72903,0 2.11538,1.91439 2.60768,6.09182 1.05893,8.98568 -1.88041,3.51359 -10.19814,4.82044 -15.63014,2.45575 z"
       style="opacity:0.99;fill:url(#linearGradient2629);fill-opacity:1;fill-rule:evenodd;stroke:#270b36;stroke-width:0" />
    <path
       id="path2597"
       d="m 373.65773,308.16816 c -1.64843,-1.8215 -1.83266,-3.47039 -1.83266,-16.40319 0,-12.9328 0.18423,-14.5817 1.83266,-16.40319 2.85977,-3.16001 7.86026,-2.34291 10.59687,1.73158 1.94273,2.8925 2.14606,4.28255 2.14606,14.67161 0,10.38906 -0.20333,11.7791 -2.14606,14.67161 -2.73661,4.07448 -7.7371,4.89159 -10.59687,1.73158 z"
       style="opacity:0.99;fill:url(#linearGradient2631);fill-opacity:1;fill-rule:evenodd;stroke:#270b36;stroke-width:0" />
    <path
       id="path2599"
       d="m 205.33266,308.1675 c -1.76368,-1.94884 -1.83206,-3.75438 -1.83206,-48.37478 0,-44.6204 0.0684,-46.42593 1.83206,-48.37478 1.41146,-1.55965 2.70678,-1.96011 5.64216,-1.74436 3.29545,0.24222 4.03219,0.72462 5.45427,3.57131 1.49379,2.99024 1.64417,7.24758 1.64417,46.54783 0,39.30025 -0.15038,43.5576 -1.64417,46.54783 -1.42208,2.84669 -2.15882,3.32909 -5.45427,3.57131 -2.93538,0.21576 -4.2307,-0.18471 -5.64216,-1.74436 z"
       style="opacity:0.99;fill:url(#linearGradient2633);fill-opacity:1;fill-rule:evenodd;stroke:#270b36;stroke-width:0" />
    <path
       id="path2601"
       d="m 49.281527,102.54641 c -5.256404,-1.28056 -7.164076,-8.512439 -3.19389,-12.107869 1.850392,-1.675729 4.052541,-1.809455 34.111765,-2.071443 35.628208,-0.310526 38.829568,0.06493 40.474288,4.74678 1.39797,3.979449 -0.27785,7.542612 -4.17659,8.880342 -3.23877,1.11129 -62.908433,1.60148 -67.215573,0.55219 z"
       style="opacity:0.99;fill:url(#linearGradient2635);fill-opacity:1;fill-rule:evenodd;stroke:#270b36;stroke-width:0" />
    <path
       id="path2603"
       d="m 49.751707,127.05255 c -5.470031,-2.17233 -7.447391,-8.73956 -3.662715,-12.16464 1.700497,-1.53893 3.475582,-1.79138 12.596137,-1.79138 9.204245,0 10.886104,0.24382 12.641752,1.83266 2.909905,2.63343 2.326643,7.68239 -1.189706,10.29861 -2.149244,1.59907 -4.203835,2.01316 -10.814143,2.17953 -4.488432,0.11296 -8.795528,-0.0467 -9.571325,-0.35478 z"
       style="opacity:0.99;fill:url(#linearGradient2637);fill-opacity:1;fill-rule:evenodd;stroke:#270b36;stroke-width:0" />
    <path
       id="path2609"
       d="m 48.246812,366.12119 c -4.589806,-1.99806 -5.75719,-8.18271 -2.159632,-11.44143 1.820452,-1.649 3.942252,-1.81453 26.696019,-2.08265 20.286639,-0.23904 25.321161,-0.0394 28.080421,1.11349 6.03766,2.52269 5.81564,10.40838 -0.35264,12.52484 -4.875117,1.67275 -48.377643,1.57765 -52.264168,-0.11425 z"
       style="opacity:0.99;fill:url(#linearGradient2639);fill-opacity:1;fill-rule:evenodd;stroke:#270b36;stroke-width:0" />
    <path
       id="path2611"
       d="m 121.47512,366.7169 c -5.8023,-1.83768 -7.81094,-7.74164 -3.87986,-11.40401 4.73947,-4.41548 17.24599,-3.15954 19.02096,1.91015 1.13585,3.24422 0.0861,7.11954 -2.27012,8.38055 -2.43659,1.30403 -10.15958,1.97205 -12.87098,1.11331 z"
       style="opacity:0.99;fill:url(#linearGradient2641);fill-opacity:1;fill-rule:evenodd;stroke:#270b36;stroke-width:0" />
  </g>
</svg>
