<?xml version="1.0" encoding="UTF-8" standalone="no"?>
<svg
   xmlns:dc="http://purl.org/dc/elements/1.1/"
   xmlns:cc="http://creativecommons.org/ns#"
   xmlns:rdf="http://www.w3.org/1999/02/22-rdf-syntax-ns#"
   xmlns:svg="http://www.w3.org/2000/svg"
   xmlns="http://www.w3.org/2000/svg"
   xmlns:xlink="http://www.w3.org/1999/xlink"
   xmlns:sodipodi="http://sodipodi.sourceforge.net/DTD/sodipodi-0.dtd"
   xmlns:inkscape="http://www.inkscape.org/namespaces/inkscape"
   inkscape:version="1.0 (4035a4fb49, 2020-05-01)"
   sodipodi:docname="judo.svg"
   viewBox="0 0 546.1333 546.1333"
   height="546.1333"
   width="546.1333"
   id="svg883"
   version="1.1">
  <metadata
     id="metadata889">
    <rdf:RDF>
      <cc:Work
         rdf:about="">
        <dc:format>image/svg+xml</dc:format>
        <dc:type
           rdf:resource="http://purl.org/dc/dcmitype/StillImage" />
        <dc:title></dc:title>
      </cc:Work>
    </rdf:RDF>
  </metadata>
  <defs
     id="defs887">
    <linearGradient
       inkscape:collect="always"
       id="linearGradient1215">
      <stop
         style="stop-color:#c31432;stop-opacity:1"
         offset="0"
         id="stop1211" />
      <stop
         style="stop-color:#240b36;stop-opacity:1"
         offset="1"
         id="stop1213" />
    </linearGradient>
    <linearGradient
       gradientTransform="translate(4.2392661,-0.72036805)"
       gradientUnits="userSpaceOnUse"
       y2="543.91858"
       x2="506.69904"
       y1="29.772285"
       x1="25.16905"
       id="linearGradient1133"
       xlink:href="#linearGradient1215"
       inkscape:collect="always" />
    <linearGradient
       gradientTransform="translate(1.6196561,0.97138495)"
       gradientUnits="userSpaceOnUse"
       y2="459.48401"
       x2="360.05563"
       y1="175.23816"
       x1="48.626659"
       id="linearGradient1141"
       xlink:href="#linearGradient1215"
       inkscape:collect="always" />
    <linearGradient
       gradientUnits="userSpaceOnUse"
       y2="343.98306"
       x2="278.55524"
       y1="336.21402"
       x1="270.78619"
       id="linearGradient1223"
       xlink:href="#linearGradient1215"
       inkscape:collect="always" />
  </defs>
  <sodipodi:namedview
     inkscape:current-layer="layer2"
     inkscape:window-maximized="0"
     inkscape:window-y="38"
     inkscape:window-x="13"
     inkscape:cy="280.25059"
     inkscape:cx="201.06145"
     inkscape:zoom="0.99695847"
     showgrid="false"
     id="namedview885"
     inkscape:window-height="1029"
     inkscape:window-width="1894"
     inkscape:pageshadow="2"
     inkscape:pageopacity="0"
     guidetolerance="10"
     gridtolerance="10"
     objecttolerance="10"
     borderopacity="1"
     bordercolor="#666666"
     pagecolor="#ffffff" />
  <g
     style="display:inline;mix-blend-mode:normal;opacity:1"
     id="g891"
     inkscape:label="Image"
     inkscape:groupmode="layer" />
  <g
     inkscape:label="Image 1"
     id="layer2"
     inkscape:groupmode="layer">
    <path
       id="path1119"
       d=""
       style="opacity:0.99;fill:#ff9955;fill-opacity:1;fill-rule:evenodd;stroke:#240b36;stroke-width:0" />
    <path
       id="path1121"
       d="m 107.03187,542.96994 c -3.62329,-3.3756 -3.87983,-7.58412 -1.06993,-17.55166 1.11903,-3.96952 2.98573,-11.04734 4.14821,-15.72848 1.16249,-4.68115 3.11943,-12.50078 4.34877,-17.37697 l 4.47034,-17.7316 c 1.22934,-4.87619 3.14435,-12.53625 4.25558,-17.02234 1.11123,-4.4861 2.92979,-11.82698 4.04123,-16.31307 1.11145,-4.4861 2.80201,-11.02906 3.7568,-14.53992 0.95479,-3.51085 2.21283,-8.61755 2.79564,-11.34822 0.5828,-2.73067 5.96755,-24.11498 11.9661,-47.52069 10.0582,-39.24607 10.85197,-43.38328 10.20595,-53.1948 -0.62531,-9.49732 -3.0666,-29.3274 -4.67149,-37.94563 -0.72749,-3.90659 -3.37736,-4.25052 -3.37736,-0.43835 0,1.51433 -0.56763,3.10415 -1.26139,3.53291 -0.69375,0.42878 -1.70048,2.54104 -2.23717,4.69394 -0.5367,2.1529 -1.79739,5.82937 -2.80154,8.16994 -1.00416,2.34057 -2.83361,6.80894 -4.06545,9.9297 -4.52692,11.46859 -18.3666,47.08035 -21.77547,56.03186 -6.38318,16.76186 -8.11508,20.14605 -11.41732,22.30976 -3.89419,2.55157 1.42497,4.42799 -54.320104,-19.16237 -23.01562,-9.73982 -43.0236899,-19.04566 -44.4623799,-20.67963 -2.92871,-3.32627 -2.59303,-8.917 1.00839,-16.79459 1.74226,-3.81095 11.9765799,-29.78336 22.8063899,-57.8775 1.05263,-2.73066 3.96067,-10.07154 6.46232,-16.31307 2.50165,-6.24152 5.51648,-13.90157 6.69963,-17.02233 1.18314,-3.12077 2.67889,-6.95079 3.32388,-8.51117 1.67279,-4.04686 5.76471,-14.48073 13.35155,-34.04468 10.45108,-26.9499 10.94429,-28.21341 12.18196,-31.20761 2.06574,-4.99752 12.70418,-32.26217 22.1399,-56.74113 1.20294,-3.120752 3.07584,-7.368437 4.162,-9.43929 1.08616,-2.070854 1.97484,-4.462917 1.97484,-5.315696 0,-4.211156 9.694724,-21.255054 15.051264,-26.46101 6.51273,-6.329646 19.81611,-13.397324 25.21758,-13.397324 1.82026,0 6.11624,-0.384698 9.54662,-0.854884 5.77323,-0.79131 6.65195,-1.50336 11.81624,-9.575064 15.79974,-24.694694 20.57967,-31.726094 22.84726,-33.608832 2.09796,-1.741901 15.32526,-2.131082 84.89747,-2.497902 55.78041,-0.294103 84.01671,0.05671 87.37714,1.085584 4.11719,1.260573 7.62892,5.121903 20.56866,22.616297 15.31875,20.71079 15.71757,21.112073 21.83055,21.965497 3.42471,0.478117 8.03099,0.869304 10.23619,0.869304 2.20522,0 6.4249,1.099563 9.37708,2.443472 7.77635,3.539989 21.68069,14.410174 21.68069,16.949593 0,0.523711 0.86622,1.95997 1.92493,3.191688 1.62821,1.894281 8.1112,17.483024 17.44947,41.958267 1.19069,3.12076 2.98324,7.58913 3.98343,9.9297 1.00019,2.34057 2.80739,6.80893 4.01596,9.92969 14.33333,37.01099 19.69849,50.73565 22.18087,56.74113 0.64499,1.56038 2.16452,5.3904 3.37673,8.51116 11.84833,30.5027 16.32647,41.9546 25.5162,65.25229 5.84715,14.82362 12.93645,33.01625 15.754,40.42805 2.81754,7.41181 6.02818,15.39103 7.13475,17.7316 8.62279,18.23864 7.77767,19.53132 -20.62841,31.55301 -12.01146,5.08333 -24.39237,10.35183 -27.51313,11.70775 -6.67398,2.89972 -15.85591,6.80916 -19.85939,8.45563 -1.56038,0.64171 -7.81667,3.25226 -13.90288,5.80121 -11.02808,4.61864 -11.07808,4.62522 -14.65554,1.92899 -3.24951,-2.44905 -5.5511,-6.94351 -11.19216,-21.85559 -1.03297,-2.73067 -4.73469,-12.30573 -8.22606,-21.27792 -8.10166,-20.81992 -12.80909,-33.03456 -17.35742,-45.03827 -5.57514,-14.71361 -8.89257,-21.12113 -9.70381,-18.74263 -0.38924,1.14121 -1.3578,7.5008 -2.15234,14.13242 -0.79455,6.63161 -2.17396,17.16418 -3.06534,23.40571 l -1.62069,11.34822 8.83077,34.04468 c 4.85692,18.72457 9.30052,36.27885 9.87465,39.00952 0.57414,2.73066 1.82508,7.83737 2.77988,11.34822 0.9548,3.51086 2.64535,10.05382 3.7568,14.53991 1.11144,4.4861 2.93,11.82698 4.04123,16.31308 1.11122,4.48609 3.07456,12.30573 4.36295,17.37697 1.28839,5.07123 3.25174,12.89087 4.36296,17.37696 2.02533,8.17633 4.3512,17.49539 8.49699,34.04468 1.22154,4.87619 3.13655,12.11359 4.25559,16.08311 2.84155,10.07982 2.62857,18.0482 -0.55953,20.93339 -2.38247,2.15611 -16.01751,2.34765 -167.11883,2.34765 -163.61172,0 -164.54194,-0.016 -167.62925,-2.89232 z m 316.06428,-17.64219 c 0,-0.37132 -3.89979,-15.851 -8.6662,-34.39931 -4.76641,-18.5483 -9.14006,-35.95836 -9.71921,-38.68903 -0.57916,-2.73067 -1.83422,-7.83737 -2.78901,-11.34822 -0.9548,-3.51086 -2.64536,-10.05382 -3.75681,-14.53992 -1.11144,-4.48609 -2.92999,-11.82697 -4.04123,-16.31307 -1.11121,-4.48609 -2.99691,-11.98656 -4.1904,-16.6677 -1.19349,-4.68115 -2.53064,-10.2666 -2.97145,-12.41212 l -0.80146,-3.90096 h -28.34355 c -15.58895,0 -28.34354,0.40105 -28.34354,0.89122 0,0.76933 5.81289,11.01826 9.95364,17.54965 13.12909,20.70912 27.36775,46.89072 27.42521,50.42867 0.0668,4.11731 -2.58043,7.87361 -7.94787,11.2773 -7.99176,5.06787 -26.8011,18.33774 -27.42603,19.34888 -0.41463,0.67088 -2.92057,1.21977 -5.56876,1.21977 -5.86884,0 -4.77287,1.45061 -26.70569,-35.34703 -9.49491,-15.93002 -17.99578,-29.20777 -18.89084,-29.50612 -0.89505,-0.29835 -2.52667,1.24522 -3.62582,3.43015 -7.29075,14.49292 -26.23167,44.9897 -29.11588,46.8795 -3.95101,2.5888 -3.81665,2.64091 -25.19683,-9.77129 -6.24152,-3.6235 -14.22074,-8.17733 -17.7316,-10.11962 -3.51086,-1.9423 -7.33514,-5.18641 -8.49842,-7.20913 -1.9222,-3.34238 -1.8582,-4.16592 0.70213,-9.033 3.18375,-6.05217 18.42138,-32.60175 20.57753,-35.85367 0.77594,-1.17028 2.00825,-3.50204 2.73845,-5.18168 0.73022,-1.67964 2.00536,-3.47274 2.83368,-3.98467 0.82831,-0.51192 1.50602,-1.86306 1.50602,-3.00252 0,-1.76476 -4.56386,-2.01509 -30.80078,-1.68944 l -30.80079,0.3823 -1.21185,4.96485 c -0.66652,2.73066 -2.12627,8.63528 -3.24389,13.12138 -1.11761,4.48609 -2.94121,11.82698 -4.05245,16.31307 -1.11122,4.4861 -3.02623,12.14615 -4.25558,17.02234 -1.22934,4.87619 -3.14435,12.53624 -4.25559,17.02234 -1.11121,4.48609 -2.99691,11.98656 -4.19039,16.6677 -1.1935,4.68114 -2.51577,10.20729 -2.93838,12.28034 -0.42262,2.07304 -1.15859,4.78597 -1.63548,6.02874 -0.77552,2.02098 2.14942,2.25958 27.70081,2.25958 32.06064,0 37.29692,1.06029 39.01354,7.89981 0.71319,2.84162 0.22705,4.97348 -1.7331,7.5999 l -2.72436,3.65042 -34.02561,0.37934 -34.02562,0.37936 -2.86347,11.32349 -2.86348,11.32352 h 148.75021 c 81.8126,0 148.7502,-0.30381 148.7502,-0.67512 z m -82.46671,-78.34338 4.77278,-4.04301 -6.26216,-10.60015 c -3.4442,-5.83008 -6.73408,-11.55766 -7.31085,-12.72795 -1.2332,-2.50221 -3.133,-5.61881 -8.41365,-13.80246 -2.12958,-3.3003 -3.87197,-6.34509 -3.87197,-6.76619 0,-0.42111 -1.7343,-3.46589 -3.85402,-6.7662 -2.11973,-3.3003 -4.90631,-7.91557 -6.19245,-10.25614 -2.26601,-4.12384 -2.69563,-4.26834 -13.87757,-4.66758 -6.34654,-0.22661 -11.53915,-0.0553 -11.53915,0.38073 0,1.00204 6.41917,12.85009 10.00805,18.47213 1.4941,2.34057 3.3918,5.53226 4.21707,7.09264 0.82527,1.56038 2.27102,4.14918 3.21275,5.75288 0.94173,1.60371 7.40171,12.57765 14.35549,24.38653 l 12.64324,21.47069 3.66983,-1.94144 c 2.01841,-1.06782 5.81759,-3.76082 8.44261,-5.98448 z M 243.47107,436.272 c 1.46068,-2.53069 3.89803,-6.83543 5.41634,-9.5661 1.5183,-2.73066 3.95889,-6.87986 5.42352,-9.22043 1.46463,-2.34057 4.13399,-7.1281 5.93189,-10.63896 1.7979,-3.51085 4.02502,-7.18507 4.94915,-8.16493 4.04497,-4.28888 3.70349,-7.5935 -1.83137,-17.7232 -1.87655,-3.43443 -2.96229,-3.90096 -9.07875,-3.90096 h -6.94728 l -5.03281,8.58718 c -2.76803,4.72293 -5.03279,8.82012 -5.03279,9.10483 0,0.28473 -3.83158,7.00772 -8.51462,14.93998 -11.96236,20.26219 -11.95064,19.51835 -0.40692,25.82128 5.29694,2.89217 10.26914,5.28189 11.04933,5.31052 0.78019,0.0287 2.61364,-2.01852 4.07431,-4.54921 z M 97.324446,353.29176 c 1.43965,-3.70298 3.455434,-8.6477 4.479534,-10.98827 1.02409,-2.34058 2.87829,-6.96852 4.12046,-10.28433 1.24217,-3.31581 3.17772,-8.42251 4.30123,-11.34823 6.47187,-16.85325 12.81844,-33.41097 15.90383,-41.49194 1.93624,-5.07124 4.37508,-11.45462 5.41963,-14.18528 1.04454,-2.73067 4.2691,-10.67698 7.16567,-17.65846 2.89657,-6.98149 5.27281,-14.0032 5.28051,-15.60381 0.007,-1.60061 -0.15232,-6.95198 -0.35563,-11.89192 -0.40152,-9.75638 0.85861,-12.1594 7.18878,-13.70867 2.45164,-0.60002 4.66158,-0.0529 6.78449,1.67982 3.24376,2.64747 3.74917,5.02241 9.45212,44.41628 5.61099,38.75855 6.93232,46.81064 7.68015,46.80207 0.73089,-0.009 14.16229,-22.61337 15.57038,-26.20488 0.31204,-0.79588 0.96991,-1.76623 1.46194,-2.15632 1.04884,-0.83154 11.44675,-18.34496 11.44675,-19.27998 0,-0.34968 1.74239,-3.33604 3.87197,-6.63634 5.28313,-8.18748 7.18103,-11.30122 8.41302,-13.80247 0.57642,-1.17028 4.62324,-8.192 8.99293,-15.60381 4.36969,-7.4118 8.39695,-14.43352 8.9495,-15.6038 0.55253,-1.17029 2.28195,-4.23666 3.84317,-6.81416 l 2.83859,-4.68636 -12.29342,-18.01009 c -17.23362,-25.24758 -18.10297,-26.46373 -19.29628,-26.99409 -0.58514,-0.26007 -1.06389,-1.10359 -1.06389,-1.87449 0,-0.7709 -0.79793,-2.26892 -1.77316,-3.32892 -0.97524,-1.06001 -3.88461,-5.00403 -6.46529,-8.76448 -13.91723,-20.27967 -38.86438,-56.354633 -41.03514,-59.33909 -4.91022,-6.750789 -22.05172,-3.701739 -30.89759,5.495917 -2.74472,2.853873 -6.98482,11.319312 -11.82071,23.600272 -4.14742,10.532571 -8.79861,22.341811 -10.33598,26.242761 -1.53736,3.90096 -3.35439,8.36932 -4.03785,9.9297 -0.68346,1.56038 -3.271824,8.26293 -5.751934,14.89454 -2.4801,6.63162 -5.33876,13.97251 -6.35256,16.31308 -1.01381,2.34057 -2.79371,6.80893 -3.95534,9.92969 -1.16162,3.12077 -4.15885,10.78082 -6.6605,17.02234 -2.50165,6.24152 -5.51648,13.90157 -6.69963,17.02234 -1.18314,3.12076 -2.67889,6.95078 -3.32388,8.51116 -1.76697,4.27473 -7.03153,17.78945 -9.11751,23.40572 -2.37552,6.3958 -10.32271,26.29817 -12.90553,32.31964 -3.55599,8.29029 -2.78314,10.04603 6.15841,13.99042 4.4861,1.97896 11.6674,5.21337 15.95844,7.18761 4.29105,1.97422 10.46994,4.74638 13.73088,6.16034 9.73172,4.21977 11.71314,11.95896 4.4457,17.36433 -4.04231,3.0066 -5.27193,2.82171 -17.46731,-2.62648 -2.34057,-1.04563 -8.08561,-3.58426 -12.76675,-5.64141 -4.68115,-2.05714 -11.03621,-4.94822 -14.12236,-6.42461 -4.28853,-2.05162 -5.87272,-2.27434 -6.7207,-0.94486 -1.71762,2.69291 -9.6553,23.763 -9.6553,25.62942 0,0.91316 2.0746,2.52751 4.61022,3.58744 2.53562,1.05992 7.16357,3.04851 10.28433,4.41908 13.86054,6.08727 52.55309,22.53958 53.1948,22.61876 0.39009,0.0481 1.88716,-2.9422 3.32681,-6.64518 z M 490.95551,344.8977 c 17.68078,-7.54171 32.42889,-13.93964 32.77357,-14.21762 0.63789,-0.5144 -1.62986,-7.63879 -4.87924,-15.32863 -0.98901,-2.34057 -2.58882,-6.33018 -3.55515,-8.8658 -0.96632,-2.53562 -1.96092,-4.61021 -2.21023,-4.61021 -0.2493,0 -6.07649,2.61041 -12.94929,5.80094 -32.61635,15.1413 -32.43111,15.08309 -37.05595,11.64322 -4.33255,-3.22247 -5.43375,-7.41191 -3.09626,-11.77956 1.21914,-2.27798 23.22797,-14.17577 26.22269,-14.17577 0.28948,0 4.7609,-1.96 9.93648,-4.35554 9.25373,-4.28313 9.39371,-4.43041 8.42078,-8.86012 -0.54415,-2.47752 -1.80332,-6.42215 -2.79813,-8.76584 -2.63875,-6.21657 -10.5763,-26.15724 -12.70708,-31.92257 -1.00921,-2.73066 -3.88173,-10.07155 -6.38337,-16.31307 -2.50165,-6.24152 -5.49887,-13.90158 -6.6605,-17.02234 -1.16163,-3.12076 -2.9304,-7.58912 -3.93059,-9.92969 -1.00019,-2.34058 -2.78443,-6.80894 -3.96497,-9.9297 -3.48572,-9.21446 -6.97812,-18.23916 -8.23421,-21.27792 -1.48323,-3.58828 -5.00359,-12.54155 -13.38614,-34.04467 C 428.1452,83.86393 425.77688,78.570795 421.24279,74.498168 415.12431,69.002414 408.46029,66.396206 400.5811,66.41766 l -6.56477,0.01788 -13.47602,22.901763 c -7.41182,12.595957 -13.96227,23.918407 -14.55658,25.160987 -0.5943,1.24258 -2.3427,4.17425 -3.88533,6.51482 -1.54262,2.34057 -3.25867,5.21309 -3.81343,6.38338 -3.09443,6.52783 -13.87186,23.5885 -15.85422,25.09723 -5.3811,4.09545 -14.37599,-0.45779 -14.37599,-7.27715 0,-1.84103 4.78753,-11.43497 10.63896,-21.31988 5.85143,-9.88491 10.63896,-18.26067 10.63896,-18.6128 0,-0.35213 1.74239,-3.34048 3.87197,-6.640777 5.20448,-8.065607 7.16878,-11.280844 8.39304,-13.738108 0.56544,-1.134892 4.38858,-7.810492 8.49587,-14.834666 4.20763,-7.19575 6.98024,-13.416645 6.35095,-14.24963 -0.61428,-0.813125 -5.07941,-6.744694 -9.92252,-13.181265 -8.85374,-11.766779 -11.84195,-13.807682 -13.50021,-9.220432 -0.92596,2.561473 -1.75118,3.96425 -8.3283,14.157092 -2.12957,3.300306 -3.87197,6.28804 -3.87197,6.639408 0,0.35137 -6.58076,11.694548 -14.6239,25.207061 -8.04315,13.512515 -15.0719,25.525707 -15.61944,26.695987 -0.54754,1.17029 -2.25813,4.04281 -3.80133,6.38338 -1.5432,2.34057 -3.25942,5.21309 -3.81384,6.38338 -0.55442,1.17028 -4.58322,8.192 -8.95291,15.60381 -4.36969,7.4118 -8.4165,14.43352 -8.99292,15.6038 -1.23199,2.50125 -3.1299,5.61499 -8.41302,13.80247 -2.12958,3.3003 -3.87197,6.36307 -3.87197,6.80614 0,0.44307 -2.23418,4.29818 -4.96486,8.5669 -2.73067,4.26872 -4.96485,8.33406 -4.96485,9.03408 0,0.70003 -0.50241,1.48555 -1.11648,1.74563 -1.04753,0.44363 -4.16878,5.5064 -11.66054,18.9137 -1.74383,3.12076 -9.15744,15.7622 -16.4747,28.09207 -7.31727,12.32989 -13.30412,22.8122 -13.30412,23.29403 0,0.48183 -0.87569,1.88382 -1.94595,3.11554 -1.07028,1.23173 -4.02923,6.06952 -6.57546,10.75066 -2.54622,4.68114 -6.45808,11.2561 -8.693,14.61102 -2.23493,3.35491 -4.06351,6.37743 -4.06351,6.7167 0,0.33926 -1.91501,3.72913 -4.25559,7.53305 -2.34057,3.80392 -4.25558,7.34238 -4.25558,7.86325 0,0.52087 8.75978,0.76943 19.46619,0.55236 l 19.46619,-0.39465 7.55785,-12.76675 c 4.15681,-7.02173 8.17324,-14.04343 8.92542,-15.60381 0.75217,-1.56039 2.62777,-4.75208 4.16796,-7.09265 1.54021,-2.34057 3.25399,-5.21309 3.80841,-6.38338 0.55442,-1.17027 4.58322,-8.192 8.95291,-15.60381 4.36969,-7.41181 8.39851,-14.43352 8.95292,-15.60381 0.55442,-1.17028 2.11809,-3.80039 3.47483,-5.84469 1.35675,-2.04429 4.92106,-7.95882 7.92069,-13.1434 2.99963,-5.18457 6.72952,-10.10922 8.28865,-10.94363 4.19735,-2.24637 9.32691,-0.36674 11.7414,4.30238 1.89264,3.65998 1.89316,4.64506 0.004,8.84526 -1.16886,2.59963 -2.74902,5.6841 -3.51146,6.85439 -2.62075,4.02321 -18.4304,31.43917 -18.4304,31.96135 0,0.28741 -1.91502,3.36008 -4.25559,6.82814 -2.34057,3.46807 -4.25558,6.72242 -4.25558,7.2319 0,0.50948 -2.23418,4.4189 -4.96486,8.68762 -2.73067,4.26872 -4.96485,8.05684 -4.96485,8.41804 0,0.36122 -2.55335,4.82844 -5.67411,9.92714 -3.12076,5.09873 -5.67411,9.58511 -5.67411,9.96976 0,0.38464 27.60811,0.53299 61.35133,0.32964 l 61.35134,-0.3697 0.33609,-4.25559 c 0.18485,-2.34057 1.26388,-10.63896 2.39784,-18.44086 1.13396,-7.8019 3.11504,-21.84533 4.40237,-31.20762 1.28734,-9.36228 3.24043,-22.84644 4.34017,-29.9648 1.09976,-7.11834 1.99956,-15.11511 1.99956,-17.7706 0,-9.03398 6.66183,-14.96218 13.95626,-12.41932 5.6238,1.96047 6.4925,6.1621 4.44898,21.51823 -1.46372,10.9992 -1.35499,12.66853 1.23533,18.96527 1.56217,3.79745 4.87304,12.33034 7.35749,18.96196 2.48446,6.63162 5.34666,13.9725 6.36047,16.31307 1.72859,3.99077 3.60147,8.85564 8.32814,21.63255 1.08232,2.92572 3.06929,8.192 4.41549,11.70286 1.3462,3.51086 3.41987,8.93673 4.60816,12.05749 1.1883,3.12076 3.03135,7.6856 4.09567,10.14408 1.06433,2.45848 1.93513,4.91535 1.93513,5.45973 0,0.54437 0.87081,3.00125 1.93513,5.45973 2.393,5.52759 6.0529,14.93501 7.177,18.44778 0.53832,1.68222 1.64868,2.31987 3.08196,1.76986 1.23228,-0.47287 16.70659,-7.03025 34.38735,-14.57199 z m -253.68654,-0.46642 v -12.76675 h -31.91689 -31.91687 v 3.36796 c 0,1.85239 -0.9575,6.08184 -2.12779,9.39879 -1.17028,3.31694 -2.12779,7.5464 -2.12779,9.39878 v 3.36797 h 34.04466 34.04468 z m 56.03185,0 V 332.37379 H 275.56923 257.83762 L 257.41636,342.88 c -0.23169,5.77841 -0.0845,11.38361 0.32696,12.456 0.59035,1.53842 4.42027,1.86572 18.15287,1.55129 l 17.40463,-0.39852 z m 86.5334,8.15653 c -0.51233,-2.53561 -1.92386,-8.28065 -3.1367,-12.76675 l -2.20519,-8.15653 h -31.02069 -31.02069 v 12.76675 12.76675 h 34.15739 34.15739 z M 259.7538,155.39379 c 4.87765,-8.38064 7.15897,-13.66504 6.38337,-14.78634 -0.6638,-0.95969 -6.10198,-8.95271 -12.08485,-17.76226 -19.95152,-29.37789 -27.34569,-40.126182 -28.0965,-40.841597 -0.40939,-0.390095 -1.38268,-1.779985 -2.16287,-3.088644 -0.78019,-1.308658 -4.66032,-7.053696 -8.62252,-12.766751 -3.96219,-5.713055 -10.98391,-15.961165 -15.60381,-22.773575 -4.61989,-6.81241 -9.1323,-12.397865 -10.02756,-12.412121 -1.51266,-0.02409 -17.52237,23.28791 -17.52237,25.514609 0,0.551942 2.23418,3.929549 4.96484,7.505795 2.73066,3.576246 4.96484,6.905323 4.96484,7.397951 0,0.492628 0.79792,1.762967 1.77316,2.822972 0.97524,1.060008 4.00734,5.203978 6.73801,9.208822 5.27318,7.73374 17.53742,25.243839 19.4351,27.748189 0.62345,0.82277 1.77189,2.54169 2.55208,3.81982 6.45719,10.57832 37.18706,53.47738 38.30026,53.46735 0.78019,-0.007 4.83416,-5.88143 9.00882,-13.05422 z m 24.00346,-40.40942 c 2.52302,-4.4861 6.48953,-11.34823 8.81447,-15.249177 2.32495,-3.900952 4.90378,-8.369315 5.73074,-9.929696 0.82694,-1.560381 2.27407,-4.126721 3.2158,-5.702978 7.50698,-12.565008 9.51415,-16.278171 9.51415,-17.600699 0,-1.023729 -8.10046,-1.520563 -24.79153,-1.520563 -24.76975,0 -24.79355,-0.0031 -27.07741,-3.488671 -2.72409,-4.157487 -1.65401,-11.297255 1.95252,-13.027499 1.31765,-0.632151 16.06889,-1.4834 32.78052,-1.891664 l 30.38479,-0.742296 6.14231,-10.405048 c 3.37826,-5.722777 6.14231,-10.989063 6.14231,-11.702856 0,-0.765775 -26.5494,-1.297808 -64.76287,-1.297808 -61.56705,0 -64.65489,0.122504 -62.57418,2.482424 1.20379,1.365333 7.0694,9.718846 13.0347,18.563363 12.09915,17.938938 16.79083,24.714033 17.84244,25.765639 0.3901,0.390096 1.3476,1.77971 2.12779,3.088032 1.93818,3.250173 29.16143,43.080317 32.37448,47.366857 1.42196,1.89705 3.03005,3.44917 3.57353,3.44917 0.54347,0 3.05242,-3.67044 5.57544,-8.15653 z"
       style="opacity:0.99;fill:url(#linearGradient1141);fill-opacity:1;fill-rule:evenodd;stroke:#240b36;stroke-width:0" />
    <path
       id="path1123"
       d="m 267.17254,350.55954 c -5.1166,-6.5047 -1.16784,-14.60131 7.12113,-14.60131 8.17525,0 11.76839,11.69119 4.96349,16.14993 -5.0308,3.29631 -8.63712,2.83417 -12.08462,-1.54862 z"
       style="opacity:0.99;fill:url(#linearGradient1223);fill-opacity:1;fill-rule:evenodd;stroke:#240b36;stroke-width:0" />
    <path
       id="path1125"
       d="m 315.39717,185.91943 c -4.87352,-3.41355 -6.39198,-7.18204 -4.40039,-10.92084 3.9124,-7.34478 9.46507,-8.56832 14.77722,-3.25617 4.49637,4.49636 4.41081,8.55944 -0.27162,12.89896 -4.38897,4.06757 -5.85746,4.25329 -10.10521,1.27805 z"
       style="opacity:0.99;fill:url(#linearGradient1133);fill-opacity:1.0;fill-rule:evenodd;stroke:#240b36;stroke-width:0" />
  </g>
</svg>
